<svg width="377" height="123" viewBox="0 0 377 123" fill="none" xmlns="http://www.w3.org/2000/svg">
<path d="M138.554 84.4563V38.9659H169.314V47.5648H148.807V56.4922H167.013V64.8943H148.807V75.8573H170.826V84.4563H138.554Z" fill="#2A3B47"/>
<path d="M188.623 76.1161C189.106 76.1604 189.664 76.1924 190.3 76.2145C190.935 76.2367 191.691 76.2477 192.567 76.2477C197.694 76.2477 201.495 74.9562 203.97 72.3745C206.447 69.7927 207.685 66.2257 207.685 61.6747C207.685 56.9047 206.501 53.2947 204.135 50.8445C201.769 48.3931 198.023 47.168 192.896 47.168C192.195 47.168 191.472 47.1791 190.727 47.2013C189.982 47.2222 189.281 47.2775 188.623 47.3648V76.1161ZM218.266 61.6747C218.266 65.6131 217.653 69.0485 216.426 71.9809C215.199 74.9132 213.457 77.3412 211.201 79.2674C208.945 81.1923 206.194 82.6364 202.952 83.5995C199.709 84.5625 196.072 85.0435 192.041 85.0435C190.201 85.0435 188.054 84.9672 185.6 84.8135C183.146 84.6609 180.736 84.3436 178.37 83.8614V39.5531C180.736 39.1165 183.201 38.82 185.765 38.6675C188.328 38.5138 190.53 38.4375 192.37 38.4375C196.27 38.4375 199.809 38.8754 202.985 39.7499C206.161 40.6257 208.889 42.0045 211.168 43.8864C213.446 45.7671 215.199 48.1742 216.426 51.1065C217.653 54.0388 218.266 57.5616 218.266 61.6747Z" fill="#2A3B47"/>
<path d="M225.824 41.3226L235.617 39.7469V49.9215H247.383V58.0617H235.617V70.2055C235.617 72.262 235.979 73.9028 236.702 75.1292C237.425 76.3542 238.882 76.9668 241.073 76.9668C242.124 76.9668 243.209 76.8684 244.326 76.6716C245.443 76.4748 246.463 76.2005 247.383 75.8512L248.763 83.4649C247.58 83.947 246.266 84.3628 244.819 84.7121C243.373 85.0626 241.598 85.2373 239.496 85.2373C236.822 85.2373 234.61 84.8769 232.857 84.1549C231.104 83.4329 229.702 82.4255 228.65 81.1353C227.598 79.8438 226.864 78.2792 226.448 76.4416C226.032 74.6039 225.824 72.5683 225.824 70.3371V41.3226Z" fill="#2A3B47"/>
<path d="M252.391 67.4511C252.391 64.3872 252.862 61.707 253.804 59.4094C254.746 57.1118 255.984 55.1979 257.517 53.6653C259.052 52.1339 260.815 50.9741 262.809 50.1869C264.802 49.3984 266.851 49.0048 268.954 49.0048C273.861 49.0048 277.74 50.5042 280.587 53.5017C283.436 56.4992 284.86 60.9088 284.86 66.7291C284.86 67.2974 284.839 67.921 284.794 68.5987C284.75 69.2777 284.707 69.8792 284.662 70.4044H262.447C262.666 72.4179 263.608 74.0144 265.274 75.1965C266.939 76.3785 269.173 76.9689 271.977 76.9689C273.774 76.9689 275.538 76.8041 277.268 76.4769C279 76.1485 280.412 75.7438 281.508 75.2617L282.822 83.205C282.297 83.467 281.596 83.7302 280.719 83.9922C279.843 84.2554 278.868 84.4842 277.794 84.6822C276.721 84.879 275.571 85.0426 274.344 85.1742C273.116 85.3058 271.89 85.371 270.663 85.371C267.552 85.371 264.846 84.911 262.546 83.9922C260.245 83.0734 258.34 81.8151 256.827 80.2186C255.316 78.6208 254.198 76.7278 253.475 74.5396C252.752 72.3515 252.391 69.9886 252.391 67.4511ZM275.395 63.7095C275.352 62.878 275.209 62.0674 274.969 61.2802C274.727 60.493 274.354 59.7919 273.85 59.1794C273.347 58.5668 272.711 58.0638 271.945 57.6702C271.178 57.2766 270.225 57.0785 269.085 57.0785C267.99 57.0785 267.048 57.2655 266.259 57.637C265.471 58.0097 264.813 58.5017 264.287 59.1142C263.761 59.7267 263.356 60.4377 263.071 61.247C262.787 62.0576 262.579 62.878 262.447 63.7095H275.395Z" fill="#2A3B47"/>
<path d="M305.626 77.6257C306.59 77.6257 307.51 77.6036 308.386 77.5593C309.263 77.5162 309.964 77.4498 310.49 77.3625V69.9456C310.096 69.857 309.504 69.7697 308.715 69.6824C307.926 69.595 307.203 69.5508 306.546 69.5508C305.627 69.5508 304.761 69.6061 303.95 69.7156C303.139 69.8251 302.427 70.0329 301.813 70.3392C301.2 70.6455 300.719 71.0612 300.368 71.5864C300.017 72.1116 299.842 72.7672 299.842 73.5556C299.842 75.087 300.357 76.1485 301.386 76.7389C302.416 77.3293 303.83 77.6257 305.626 77.6257ZM304.837 49.0048C307.729 49.0048 310.139 49.3332 312.068 49.9901C313.995 50.6456 315.54 51.5866 316.701 52.8129C317.862 54.038 318.684 55.5251 319.165 57.2766C319.648 59.0269 319.888 60.974 319.888 63.1179V83.467C318.487 83.7733 316.537 84.1349 314.039 84.5506C311.542 84.9664 308.518 85.1742 304.969 85.1742C302.733 85.1742 300.708 84.9774 298.888 84.5838C297.071 84.189 295.504 83.5445 294.19 82.6466C292.875 81.7499 291.867 80.5789 291.166 79.1349C290.464 77.6909 290.115 75.9185 290.115 73.8176C290.115 71.8053 290.52 70.0981 291.33 68.6984C292.141 67.2974 293.226 66.1818 294.584 65.3503C295.943 64.5188 297.498 63.9174 299.251 63.5447C301.003 63.1732 302.822 62.9875 304.705 62.9875C305.976 62.9875 307.104 63.0416 308.091 63.1511C309.076 63.2605 309.877 63.4032 310.49 63.5779V62.6591C310.49 60.9961 309.986 59.6616 308.978 58.6542C307.97 57.648 306.218 57.145 303.72 57.145C302.055 57.145 300.412 57.2655 298.79 57.5054C297.169 57.7464 295.766 58.0859 294.584 58.5238L293.335 50.6456C293.904 50.471 294.616 50.2853 295.471 50.0885C296.326 49.8917 297.257 49.7158 298.264 49.5632C299.273 49.4095 300.334 49.2791 301.453 49.1696C302.57 49.0602 303.698 49.0048 304.837 49.0048Z" fill="#2A3B47"/>
<path d="M347.753 66.1438C347.753 62.9938 347.348 60.7613 346.537 59.4489C345.727 58.1352 344.335 57.4797 342.364 57.4797C341.75 57.4797 341.115 57.5116 340.457 57.5781C339.801 57.6432 339.165 57.7195 338.552 57.8081V84.4585H328.758V51.1119C329.591 50.893 330.566 50.663 331.683 50.4231C332.8 50.1821 333.984 49.9631 335.233 49.7663C336.481 49.5695 337.762 49.4158 339.078 49.3063C340.392 49.1968 341.685 49.1427 342.955 49.1427C345.452 49.1427 347.48 49.4601 349.035 50.0947C350.591 50.7294 351.873 51.4834 352.88 52.3592C354.282 51.353 355.893 50.5646 357.71 49.9963C359.529 49.4268 361.206 49.1427 362.739 49.1427C365.499 49.1427 367.768 49.5252 369.542 50.2915C371.316 51.0578 372.73 52.1402 373.781 53.5412C374.833 54.9409 375.556 56.6039 375.95 58.5301C376.344 60.455 376.541 62.5989 376.541 64.963V84.4585H366.748V66.1438C366.748 62.9938 366.343 60.7613 365.532 59.4489C364.722 58.1352 363.33 57.4797 361.358 57.4797C360.832 57.4797 360.098 57.61 359.156 57.8733C358.215 58.1352 357.437 58.4637 356.824 58.8573C357.13 59.8646 357.327 60.9249 357.415 62.0417C357.502 63.1573 357.547 64.3492 357.547 65.6186V84.4585H347.753V66.1438Z" fill="#2A3B47"/>
<path fill-rule="evenodd" clip-rule="evenodd" d="M59.635 99.3103C46.5875 98.5133 34.0931 90.5429 28.0189 78.8948C22.3819 68.0855 22.4706 54.5063 28.2319 43.7795C34.6818 31.7722 47.4755 24.45 61.6363 23.8203C61.6363 23.8203 65.155 23.5952 67.5036 22.2631C74.4719 18.3086 75.5126 6.63592 68.0233 1.86967C66.0072 0.586778 63.6007 -0.00731211 61.2016 6.7894e-05C37.544 0.226388 14.6672 14.9913 5.05096 36.8964C-3.03073 55.3083 -1.34961 77.6365 9.63 94.7102C18.3681 108.297 32.6188 118.233 48.4275 121.668C70.0616 126.37 94.0246 118.379 108.486 101.529C122.824 84.8209 127.205 60.1225 119.175 39.3884C114.571 27.5017 106.414 16.6617 95.5001 10.1402C94.9299 9.79949 94.3325 9.51905 93.7168 9.29519C104.696 18.6862 111.657 32.6209 111.657 48.1632C111.657 76.4139 88.6623 99.3485 60.337 99.3485C60.1055 99.3485 60.0821 99.3374 59.635 99.3103Z" fill="#1292EE"/>
</svg>
